<svg width="32" height="32" viewBox="0 0 32 32" fill="none" xmlns="http://www.w3.org/2000/svg">
  <circle cx="16" cy="16" r="15" fill="white" stroke="black" stroke-width="2"/>
  <path d="M16 8C13.79 8 12 9.79 12 12C12 13.2 12.5 14.27 13.31 15L11 17.31L12.41 18.72L14.59 16.54C14.94 16.82 15.35 17.03 15.8 17.14L15.5 24H16.5L16.2 17.14C16.65 17.03 17.06 16.82 17.41 16.54L19.59 18.72L21 17.31L18.69 15C19.5 14.27 20 13.2 20 12C20 9.79 18.21 8 16 8Z" fill="black"/>
  <circle cx="14.5" cy="12" r="1.5" fill="white"/>
  <circle cx="17.5" cy="12" r="1.5" fill="white"/>
</svg>